<svg width="34" height="34" viewBox="0 0 34 34" fill="none" xmlns="http://www.w3.org/2000/svg">
<path fill-rule="evenodd" clip-rule="evenodd" d="M26.916 7.08203H7.08268C6.30028 7.08203 5.66602 7.71629 5.66602 8.4987C5.66602 9.2811 6.30028 9.91536 7.08268 9.91536H26.916C27.6984 9.91536 28.3327 9.2811 28.3327 8.4987C28.3327 7.71629 27.6984 7.08203 26.916 7.08203ZM26.916 15.582H7.08268C6.30028 15.582 5.66602 16.2163 5.66602 16.9987C5.66602 17.7811 6.30028 18.4154 7.08268 18.4154H26.916C27.6984 18.4154 28.3327 17.7811 28.3327 16.9987C28.3327 16.2163 27.6984 15.582 26.916 15.582ZM7.08268 24.082H26.916C27.6984 24.082 28.3327 24.7163 28.3327 25.4987C28.3327 26.2811 27.6984 26.9154 26.916 26.9154H7.08268C6.30028 26.9154 5.66602 26.2811 5.66602 25.4987C5.66602 24.7163 6.30028 24.082 7.08268 24.082Z" fill="#D9D9D9"/>
</svg>
